# xmcd
#
# Track frame offsets:
#	150
#	16279
#	34036
#	47704
#	61902
#	77769
#	95886
#	113451
#	125229
#	142346
#	160727
#	176528
#	188630
#	203828
#	214777
#	228729
#	244158
#	258616
#	278225
#	292790
#	310723
#
# Disc length: 4375
#
# Revision: 2
# Processed by: cddbd v1.5.1PL0 Copyright (c) Steve Scherf et al.
# Submitted via: audiograbber 1.82.02
# Normalized: r1:DSETVAR1
#
DISCID=32111515
DTITLE=Various Artist - CDXmas 1012 12-Dec-1999
DYEAR=1999
DGENRE=Christmas - Country
TTITLE0=Paul Brandt - A Star Is Borne
TTITLE1=Anita Cochran - Auld Lang Syne
TTITLE2=Clay Walker - Blue Christmas
TTITLE3=Marty Raybon - Christmas Comes Alive
TTITLE4=SHeDAISY - Deck The Halls
TTITLE5=Martina McBride - Do You Hear What I Hear
TTITLE6=Bill Engvall - Fruitcake Makes Me Puke
TTITLE7=Bill Engvall - Here's Your Sign Christmas
TTITLE8=Bryan White - Holiday Inn
TTITLE9=Jeff Weber - It's Christmas Time Again
TTITLE10=Kenny Chesney - Just Put A Ribbon In Your Hair
TTITLE11=Tracy Byrd - Merry Christmas From Texas Y'all
TTITLE12=George Strait - Old Time Christmas
TTITLE13=Jeff Foxworthy - Redneck 12 Days Of Christmas
TTITLE14=Keith Harling - Santa's Got A Semi
TTITLE15=Collin Raye - Silent Night
TTITLE16=Paul Brandt - Six Tons Of Toys
TTITLE17=Hal Bynum - The Change (A Kind Of Christmas Carol)
TTITLE18=Billy Hoffman - The List
TTITLE19=Reba McEntire - Secret Of Giving
TTITLE20=Keith Bryant - What Will Christmas Be
EXTD=
EXTT0=
EXTT1=
EXTT2=
EXTT3=
EXTT4=
EXTT5=
EXTT6=
EXTT7=
EXTT8=
EXTT9=
EXTT10=
EXTT11=
EXTT12=
EXTT13=
EXTT14=
EXTT15=
EXTT16=
EXTT17=
EXTT18=
EXTT19=
EXTT20=
PLAYORDER=
